<svg xmlns="http://www.w3.org/2000/svg" fill-rule="evenodd" clip-rule="evenodd" image-rendering="optimizeQuality" shape-rendering="geometricPrecision" text-rendering="geometricPrecision" viewBox="0 0 512 512" id="Appointment">
  <path fill-rule="nonzero" d="M506 510.42l-500 0c-3.31,0 -6,-2.68 -6,-6l0 -443.78c0,-3.31 2.69,-6 6,-6l59.77 0c0,-17.8 -2.66,-32.62 8.9,-44.18 11.86,-11.84 30.89,-11.84 42.73,0l-0.01 0.01c11.55,11.57 8.9,26.36 8.9,44.17l99.45 0c0,-17.8 -2.66,-32.62 8.91,-44.18 19.23,-19.21 51.61,-5.11 51.61,21.38l0 22.8 99.46 0c0,-17.71 -2.66,-32.64 8.88,-44.18 19.2,-19.2 51.64,-5.15 51.64,21.38l0 22.8 59.76 0c3.31,0 6,2.69 6,6l0 443.78c0,3.32 -2.69,6 -6,6zm-244 -180.83l94.22 0c7.9,0 7.9,12 0,12l-100.22 0c-3.31,0 -6,-2.68 -6,-6l0 -68.97c0,-7.9 12,-7.9 12,0l0 62.97zm-6 -128.85c74.48,0 134.86,60.38 134.86,134.85 0,74.48 -60.38,134.86 -134.86,134.86 -74.48,0 -134.86,-60.38 -134.86,-134.86 0,-74.47 60.38,-134.85 134.86,-134.85zm86.87 47.98c-47.97,-47.98 -125.77,-47.98 -173.74,0 -47.98,47.98 -47.98,125.77 0,173.75 47.97,47.97 125.77,47.97 173.74,0 47.98,-47.98 47.98,-125.77 0,-173.75zm42.85 -182.08l-99.46 0c0,17.78 2.65,32.64 -8.88,44.17l-0.02 -0.01c-19.19,19.18 -51.62,5.23 -51.62,-21.36l0 -22.8 -99.45 0c0,17.78 2.65,32.64 -8.89,44.17 -19.14,19.14 -51.63,5.27 -51.63,-21.37l0 -22.8 -53.77 0 0 94.12 488 0 0 -94.12 -53.76 0c0,17.78 2.65,32.64 -8.89,44.17l-0.01 -0.01c-19.21,19.2 -51.62,5.24 -51.62,-21.36l0 -22.8zm30.26 41.06c5.04,0 9.59,-2.05 12.9,-5.36l-0.01 -0.01c3.31,-3.31 5.37,-7.88 5.37,-12.89l0 -57.6c0,-24.02 -36.52,-23.97 -36.52,0l0 57.6c0,10.03 8.23,18.26 18.26,18.26zm-319.95 0c10.02,0 18.25,-8.23 18.25,-18.26l0 -57.6c0,-5.05 -2.05,-9.6 -5.35,-12.9l-0.01 0.01c-11.57,-11.57 -31.15,-3.2 -31.15,12.89l0 57.6c0,10 8.17,18.26 18.26,18.26zm159.97 0c5.04,0 9.6,-2.05 12.9,-5.36l-0.01 -0.01c3.31,-3.31 5.37,-7.88 5.37,-12.89l0 -57.6c0,-24 -36.52,-24 -36.52,0l0 57.6c0,10 8.17,18.26 18.26,18.26zm-244 390.72l488 0 0 -325.66 -488 0 0 325.66z" fill="#ffffff" class="color000000 svgShape"></path>
</svg>
