<svg xmlns="http://www.w3.org/2000/svg" id="data-visualization" viewBox="0 0 48 48">
  <rect width="10" height="7" x="19" y="34" style="fill:#00286f"></rect>
  <path d="M37.5,39H10.5c-1.933,0-3.5,1.567-3.5,3.5h0c0,.828.672,1.5,1.5,1.5h31c.828,0,1.5-.672,1.5-1.5h0c0-1.933-1.567-3.5-3.5-3.5Z" style="fill:#154e9e"></path>
  <path d="M41,42.5c0,.83-.67,1.5-1.5,1.5H8.5c-.83,0-1.5-.67-1.5-1.5,0-.43.08-.84.23-1.22.25.43.73.72,1.27.72h31c.54,0,1.02-.29,1.27-.72.15.38.23.79.23,1.22Z" style="fill:#0d3b8d"></path>
  <rect width="42" height="32" x="3" y="4" rx="4" ry="4" style="fill:#154e9e"></rect>
  <path d="M45,28v4c0,2.21-1.79,4-4,4H7c-2.21,0-4-1.79-4-4V8c0-2.21,1.79-4,4-4h1v23c0,.55.45,1,1,1h36Z" style="fill:#0d3b8d"></path>
  <circle cx="24" cy="33" r="1.25" style="fill:#1761b2"></circle>
  <rect width="36" height="23" x="6" y="7" rx="1" ry="1" style="fill:#eff3f9"></rect>
  <path d="M42,28v1c0,.55-.45,1-1,1H7c-.55,0-1-.45-1-1V8c0-.55.45-1,1-1h1v20c0,.55.45,1,1,1h33Z" style="fill:#cfe0f3"></path>
  <path d="M20 13h-9c-.552 0-1-.448-1-1s.448-1 1-1h9c.552 0 1 .448 1 1s-.448 1-1 1ZM20 17h-9c-.552 0-1-.448-1-1s.448-1 1-1h9c.552 0 1 .448 1 1s-.448 1-1 1ZM20 21h-9c-.552 0-1-.448-1-1s.448-1 1-1h9c.552 0 1 .448 1 1s-.448 1-1 1ZM38 25H11c-.552 0-1-.448-1-1s.448-1 1-1h27c.552 0 1 .448 1 1s-.448 1-1 1Z" style="fill:#b6cae5"></path>
  <rect width="4" height="7" x="23" y="14" rx="1" ry="1" style="fill:#ff3b65"></rect>
  <path d="M27,19v1c0,.55-.45,1-1,1h-2c-.55,0-1-.45-1-1v-5c0-.55.45-1,1-1h1v4c0,.55.45,1,1,1h1Z" style="fill:#d82b50;opacity:.75"></path>
  <rect width="4" height="11" x="29" y="10" rx="1" ry="1" style="fill:#ffc343"></rect>
  <path d="M33,19v1c0,.55-.45,1-1,1h-2c-.55,0-1-.45-1-1v-9c0-.55.45-1,1-1h1v8c0,.55.45,1,1,1h1Z" style="fill:#ffa221"></path>
  <rect width="4" height="9" x="35" y="12" rx="1" ry="1" style="fill:#05e594"></rect>
  <path d="M39,19v1c0,.55-.45,1-1,1h-2c-.55,0-1-.45-1-1v-7c0-.55.45-1,1-1h1v6c0,.55.45,1,1,1h1Z" style="fill:#00ca85"></path>
</svg>
