<svg xmlns="http://www.w3.org/2000/svg" viewBox="0 0 16 16" id="Notification">
  <path d="M8.012 3.002c.282 0 .5.218.5.5 0 .282-.218.5-.5.5a.493.493 0 0 1-.5-.5c0-.282.218-.5.5-.5zm.011 2.002a2.48 2.48 0 0 1 2.5 2.498s-.011 1.63-.011 2.557c0 .292.11.486.224.68.056.093.124.175.188.263H5.092c.064-.086.133-.165.19-.258.116-.194.23-.39.23-.685 0-1.09.011-2.551.011-2.551a2.487 2.487 0 0 1 2.5-2.502zm-1.007 6.998h1.996a.999.999 0 1 1-1.996 0z" color="#000" font-family="sans-serif" font-weight="400" overflow="visible" style="text-indent:0;text-align:start;line-height:normal;text-transform:none;block-progression:tb" fill="#5c6bc0" class="color000000 svgShape"></path>
</svg>
