<svg xmlns="http://www.w3.org/2000/svg" fill-rule="evenodd" stroke-linejoin="round" stroke-miterlimit="2" clip-rule="evenodd" viewBox="0 0 101 101" id="statistics">
  <path d="M39.437,76.863l-26.604,-0c-3.005,-0 -5.888,-1.195 -8.013,-3.32c-2.126,-2.125 -3.32,-5.007 -3.32,-8.013l0,-42.548c0,-3.006 1.194,-5.888 3.32,-8.014c2.125,-2.125 5.008,-3.319 8.013,-3.319l75.334,-0c3.006,-0 5.888,1.194 8.014,3.319c2.125,2.126 3.319,5.008 3.319,8.014l0,42.548c0,3.006 -1.194,5.888 -3.319,8.013c-2.126,2.125 -5.008,3.32 -8.014,3.32l-26.604,-0l0,8.569l8.728,-0.001c1.082,0.001 1.96,0.88 1.96,1.961c0,1.082 -0.878,1.959 -1.96,1.959l-39.582,0c-1.082,0 -1.96,-0.877 -1.96,-1.959c0,-1.082 0.878,-1.96 1.96,-1.96l8.728,-0.001l0,-8.568Zm3.92,8.569l14.286,-0.001l0,-8.568l-14.286,-0l0,8.569Zm52.223,-20.574l-90.16,-0l0,0.672c0,1.965 0.781,3.852 2.171,5.242c1.391,1.39 3.276,2.171 5.242,2.171l75.334,-0c1.966,-0 3.852,-0.781 5.242,-2.172c1.39,-1.389 2.171,-3.275 2.171,-5.242l0,-0.671Zm-0,-3.92l-0,-37.957c-0,-1.965 -0.781,-3.851 -2.171,-5.241c-1.39,-1.39 -3.276,-2.171 -5.242,-2.171l-75.334,-0c-1.966,-0 -3.851,0.781 -5.242,2.171c-1.39,1.39 -2.171,3.276 -2.171,5.242l-0,37.956l90.16,-0Zm-13.84,-37.077l-7.812,-0c-1.076,-0 -1.95,-0.874 -1.95,-1.95c0,-1.077 0.874,-1.95 1.95,-1.95l12.762,-0c1.077,-0 1.95,0.873 1.95,1.95l0,13.027c0,1.077 -0.874,1.95 -1.95,1.95c-1.077,-0 -1.95,-0.873 -1.95,-1.95l0,-8.522l-11.234,9.89l0,18.66c0,1.076 -0.874,1.95 -1.95,1.95c-1.076,-0 -1.95,-0.874 -1.95,-1.95l0,-18.264l-10.756,-4.689l0,23.077c0,1.077 -0.874,1.95 -1.95,1.95c-1.076,-0 -1.95,-0.873 -1.95,-1.95l0,-21.712l-10.756,9.56l0,12.152c0,1.077 -0.874,1.95 -1.95,1.95c-1.076,-0 -1.95,-0.873 -1.95,-1.95l0,-11.077l-10.756,-0l0,11.077c0,1.077 -0.874,1.95 -1.95,1.95c-1.076,-0 -1.95,-0.873 -1.95,-1.95l0,-8.186l-9.566,9.565c-0.761,0.761 -1.997,0.761 -2.758,-0c-0.761,-0.761 -0.761,-1.996 0,-2.757l13.028,-13.028c0.366,-0.366 0.862,-0.571 1.379,-0.571l13.781,-0l14.102,-12.535c0.569,-0.505 1.378,-0.634 2.075,-0.33l13.519,5.893l10.542,-9.28Zm-67.429,7.233l12.761,0c1.076,0 1.95,-0.874 1.95,-1.95c-0,-1.077 -0.874,-1.95 -1.95,-1.95l-12.761,0c-1.076,0 -1.95,0.873 -1.95,1.95c-0,1.076 0.874,1.95 1.95,1.95Zm-0,-6.624l12.761,0c1.076,0 1.95,-0.873 1.95,-1.95c-0,-1.076 -0.874,-1.95 -1.95,-1.95l-12.761,0c-1.076,0 -1.95,0.874 -1.95,1.95c-0,1.077 0.874,1.95 1.95,1.95Z" fill="#ffffff" class="color000000 svgShape"></path>
</svg>
